<?xml version="1.0" encoding="utf-8"?>
<!-- Generator: Adobe Illustrator 23.0.1, SVG Export Plug-In . SVG Version: 6.00 Build 0)  -->
<svg version="1.1" id="Camada_1" xmlns="http://www.w3.org/2000/svg" xmlns:xlink="http://www.w3.org/1999/xlink" x="0px" y="0px"
	 viewBox="0 0 173 40" style="enable-background:new 0 0 173 40;" xml:space="preserve">
<style type="text/css">
	.st0{fill:#33CC95;}
	.st1{clip-path:url(#SVGID_2_);}
	.st2{fill:none;stroke:#FFFFFF;stroke-width:2;stroke-linecap:round;stroke-linejoin:round;}
	.st3{fill:#FFFFFF;}
</style>
<path class="st0" d="M34.1,5.9C30.4,2.1,25.3,0,20,0S9.6,2.1,5.9,5.9S0,14.7,0,20s2.1,10.4,5.9,14.1S14.7,40,20,40
	s10.4-2.1,14.1-5.9S40,25.3,40,20S37.9,9.6,34.1,5.9z"/>
<g>
	<defs>
		<rect id="SVGID_1_" x="6.9" y="6.9" width="27.4" height="27.4"/>
	</defs>
	<clipPath id="SVGID_2_">
		<use xlink:href="#SVGID_1_"  style="overflow:visible;"/>
	</clipPath>
	<g class="st1">
		<path class="st2" d="M20.6,8v25.1"/>
		<path class="st2" d="M26.3,12.6h-8.6c-1.1,0-2.1,0.4-2.8,1.2c-0.8,0.8-1.2,1.8-1.2,2.8c0,1.1,0.4,2.1,1.2,2.8
			c0.8,0.8,1.8,1.2,2.8,1.2h5.7c1.1,0,2.1,0.4,2.8,1.2c0.8,0.8,1.2,1.8,1.2,2.8c0,1.1-0.4,2.1-1.2,2.8c-0.8,0.8-1.8,1.2-2.8,1.2
			h-9.7"/>
	</g>
</g>
<path class="st3" d="M62,15.2L63.1,9h4l-3,16.8h-4l0.2-1c-0.9,0.9-2.1,1.3-3.5,1.3c-1.7,0-3-0.6-3.8-1.9c-0.8-1.3-1.1-2.8-0.8-4.6
	c0.3-1.7,1-3.1,2.2-4.3c1.2-1.2,2.6-1.8,4.3-1.8C60.2,13.5,61.3,14.1,62,15.2z M58.2,22.5c0.7,0,1.4-0.2,1.9-0.7s0.9-1,1-1.8l0-0.2
	c0.1-0.8,0-1.4-0.4-1.8c-0.4-0.5-0.9-0.7-1.7-0.7c-0.8,0-1.4,0.2-2,0.7c-0.6,0.5-0.9,1.1-1,1.9c-0.1,0.8,0,1.4,0.4,1.9
	C56.9,22.2,57.4,22.5,58.2,22.5z"/>
<path class="st3" d="M69.4,15.2c1.3-1.2,2.9-1.7,4.7-1.7c1.8,0,3.2,0.6,4.2,1.8c1,1.2,1.4,2.7,1.1,4.5c-0.1,0.5-0.2,1-0.4,1.5h-8.2
	c0.2,1,1,1.5,2.3,1.5c1,0,1.8-0.3,2.4-0.9l2.5,2.3c-1.4,1.3-3.1,1.9-5.2,1.9c-2.1,0-3.6-0.6-4.7-1.9c-1-1.3-1.4-2.9-1.1-4.7
	C67.2,17.8,68,16.4,69.4,15.2z M71.2,18.5h4.5c-0.1-1.1-0.7-1.7-1.9-1.7C72.7,16.9,71.8,17.4,71.2,18.5z"/>
<path class="st3" d="M85.2,20.7l3.4-6.8h4.4l-6.5,12h-4.1l-2.3-12h4.1L85.2,20.7z"/>
<path class="st3" d="M92.1,25.8l3-16.8h4.3l-3,16.8H92.1z"/>
<path class="st3" d="M108.3,13.5c1.3,0,2.3,0.5,3,1.4c0.7,0.9,0.9,2.2,0.6,3.8l-1.3,7.2h-4l1.2-6.7c0.1-0.6,0-1.1-0.3-1.4
	c-0.3-0.3-0.7-0.5-1.2-0.5c-1.3,0-2.1,0.7-2.3,2.2v0l-1.1,6.4h-4l2.1-12h4l-0.2,1.2C105.7,14,106.9,13.5,108.3,13.5z"/>
<path class="st3" d="M118.7,20.7l3.4-6.8h4.4l-6.5,12h-4.1l-2.3-12h4.1L118.7,20.7z"/>
<path class="st3" d="M127.9,15.2c1.3-1.2,2.9-1.7,4.7-1.7c1.8,0,3.2,0.6,4.2,1.8c1,1.2,1.4,2.7,1.1,4.5c-0.1,0.5-0.2,1-0.4,1.5h-8.2
	c0.2,1,1,1.5,2.3,1.5c1,0,1.8-0.3,2.4-0.9l2.5,2.3c-1.4,1.3-3.1,1.9-5.2,1.9c-2.1,0-3.6-0.6-4.7-1.9c-1-1.3-1.4-2.9-1.1-4.7
	C125.8,17.8,126.6,16.4,127.9,15.2z M129.8,18.5h4.5c-0.1-1.1-0.7-1.7-1.9-1.7C131.2,16.9,130.4,17.4,129.8,18.5z"/>
<path class="st3" d="M143.2,26.2c-2.7,0-4.4-1-5.3-3l3.5-1.7c0.4,0.9,1,1.4,2,1.4c0.7,0,1.1-0.2,1.2-0.6c0-0.2-0.1-0.4-0.4-0.6
	s-0.9-0.3-1.5-0.5c-2.5-0.6-3.6-2-3.2-4.1c0.2-1.2,0.8-2.1,1.8-2.7c1-0.6,2.1-0.9,3.3-0.9c1.1,0,2.1,0.2,2.9,0.7
	c0.8,0.5,1.4,1.1,1.8,2l-3.4,1.6c-0.3-0.7-0.8-1.1-1.5-1.1c-0.6,0-1,0.2-1.1,0.6c0,0.3,0,0.5,0.3,0.6c0.2,0.1,0.6,0.3,1.2,0.4
	c0.6,0.1,1,0.3,1.3,0.4c1.9,0.6,2.7,1.8,2.4,3.8c-0.2,1.2-0.8,2.1-1.8,2.7C145.8,25.9,144.6,26.2,143.2,26.2z"/>
<path class="st3" d="M157.9,17.7h-2.5l-0.6,3.5c-0.1,0.5,0,0.8,0.3,1c0.3,0.1,1,0.2,2,0.1l-0.6,3.6c-2.3,0.3-3.8,0.1-4.8-0.7
	c-0.9-0.8-1.2-2.1-0.9-3.9l0.6-3.6h-1.8l0.7-3.8h1.8l0.4-2.2l4.2-1.2l-0.6,3.4h2.5L157.9,17.7z"/>
</svg>
